<svg version="1.1"
      xmlns="http://www.w3.org/2000/svg"
      xmlns:xlink="http://www.w3.org/1999/xlink"  id="snapshot-72119" width="250" height="250" viewBox="0 0 250 250"><desc>This image was made on Patterninja.com</desc><defs>
<!-- image 45830 -->
<g id="transformed-45830" data-image="45830" transform="translate(14.567549023676932, 216.00794745491928) rotate(12, 13.762450976323066, 13.32205254508073)"><g><svg version="1.1" width="27.524901952646132px" height="26.64410509016146px" viewBox="0 0 27.524901952646132 26.64410509016146"><g id="original-45830"><svg xmlns="http://www.w3.org/2000/svg" viewBox="0 0 70 68" xmlns:xlink="http://www.w3.org/1999/xlink" version="1.1" preserveAspectRatio="xMidYMid meet">
  <path fill-rule="evenodd" d="M14 65c9.113 0 11-2.853 11-8 0-.169-.02-.832-.025-1h20.05c0 .168-.025.831-.025 1 0 5.147 1.887 8 11 8v3H14v-3z" fill="rgba(144, 144, 144, 1)" stroke="none"/>
  <rect width="70" height="54" y="2" fill-rule="evenodd" rx="6" fill="rgba(152, 152, 152, 1)" stroke="none"/>
  <path fill-rule="evenodd" d="M70 47V5.998A5.993 5.993 0 0 0 64.002 0H5.998A5.995 5.995 0 0 0 0 5.998V47h70z" fill="rgba(217, 217, 217, 1)" stroke="none"/>
  <circle cx="35" cy="52" r="3" fill-rule="evenodd" fill="rgba(80, 96, 121, 1)" stroke="none"/>
</svg>
</g></svg></g></g>
<!-- /image 45830 -->

<!-- image 21004 -->
<g id="transformed-21004" data-image="21004" transform="translate(98.27892159251653, 45.55182499025591) rotate(348, 11.411078407483469, 14.85817500974409)"><g><svg version="1.1" width="22.822156814966938px" height="29.71635001948818px" viewBox="0 0 22.822156814966938 29.71635001948818"><g id="original-21004"><svg xmlns="http://www.w3.org/2000/svg" viewBox="0 0 53 69" xmlns:xlink="http://www.w3.org/1999/xlink" version="1.1" preserveAspectRatio="xMidYMid meet">
  <path fill-rule="evenodd" d="M14 0h31L24 40H0L14 0zm11 24h28L10 69l15-45z" fill="rgba(255, 217, 40, 1)" stroke="none"/>
  <path fill-rule="evenodd" d="M17 2h23L20 6 4 38 17 2zm8.5 38L14 63l8.306-23H25.5z" fill="rgba(255, 243, 185, 1)" stroke="none"/>
</svg>
</g></svg></g></g>
<!-- /image 21004 -->

<!-- image 56032 -->
<g id="transformed-56032" data-image="56032" transform="translate(22.04339211713731, 97.48757220001792) rotate(350, 11.376607882862691, 10.102427799982076)"><g><svg version="1.1" width="22.753215765725383px" height="20.20485559996415px" viewBox="0 0 22.753215765725383 20.20485559996415"><g id="original-56032"><svg xmlns="http://www.w3.org/2000/svg" viewBox="0 0 72 64" xmlns:xlink="http://www.w3.org/1999/xlink" version="1.1" preserveAspectRatio="xMidYMid meet">
  <path fill-rule="evenodd" d="M36 64C29.7 64 0 42.055 0 20.112 0 13.812.67-.002 18.9-.002c7.482 0 14.106 5.712 17.1 11.886C38.994 5.71 45.618-.002 53.1-.002 71.33-.002 72 13.811 72 20.112 72 42.057 42.3 64 36 64z" fill="rgba(200, 127, 201, 1)" stroke="none"/>
  <path fill-rule="evenodd" d="M36 11.884C38.994 5.71 45.618-.002 53.1-.002 71.33-.002 72 13.811 72 20.112 72 42.057 42.3 64 36 64V11.884z" fill="rgba(169, 112, 169, 1)" stroke="none"/>
</svg>
</g></svg></g></g>
<!-- /image 56032 -->

<!-- image 59995 -->
<g id="transformed-59995" data-image="59995" transform="translate(180.15946324730774, 130.65101115844777) rotate(341, 11.760536752692245, 11.14898884155225)"><g><svg version="1.1" width="23.52107350538449px" height="22.2979776831045px" viewBox="0 0 23.52107350538449 22.2979776831045"><g id="original-59995"><svg xmlns="http://www.w3.org/2000/svg" viewBox="0 0 78 74" xmlns:xlink="http://www.w3.org/1999/xlink" version="1.1" preserveAspectRatio="xMidYMid meet">
  <path fill-rule="evenodd" d="M39 74l39-56H0z" fill="rgba(255, 200, 219, 1)" stroke="none"/>
  <path fill-rule="evenodd" d="M65.464 0L78 18H0L12.536 0z" fill="rgba(255, 200, 219, 1)" stroke="none"/>
  <path fill-rule="evenodd" d="M13 0l13 18H0z" fill="rgba(216, 117, 152, 1)" stroke="none"/>
  <path fill-rule="evenodd" d="M26 18L39 0H13z" fill="rgba(242, 160, 189, 1)" stroke="none"/>
  <path fill-rule="evenodd" d="M52 18L65 0H39z" fill="rgba(242, 160, 189, 1)" stroke="none"/>
  <path fill-rule="evenodd" d="M65 0l13 18H52z" fill="rgba(216, 117, 152, 1)" stroke="none"/>
  <path fill-rule="evenodd" d="M39 74l13-56H26z" fill="rgba(216, 117, 152, 1)" stroke="none"/>
  <path fill-rule="evenodd" d="M39 74l39-56H52z" fill="rgba(193, 81, 121, 1)" stroke="none"/>
</svg>
</g></svg></g></g>
<!-- /image 59995 -->

<!-- image 31092 -->
<g id="transformed-31092" data-image="31092" transform="translate(181.35041969344476, 5.570770762991023) rotate(342, 10.089580306555224, 12.549229237008978)"><g><svg version="1.1" width="20.179160613110447px" height="25.098458474017956px" viewBox="0 0 20.179160613110447 25.098458474017956"><g id="original-31092"><svg xmlns="http://www.w3.org/2000/svg" viewBox="0 0 54 67" xmlns:xlink="http://www.w3.org/1999/xlink" version="1.1" preserveAspectRatio="xMidYMid meet">
  <path fill-rule="evenodd" d="M1 14h52L43 67H11z" fill="rgba(143, 99, 73, 1)" stroke="none"/>
  <path fill-rule="evenodd" d="M1 24h52l-5 23H6z" fill="rgba(156, 134, 121, 1)" stroke="none"/>
  <path fill-rule="evenodd" d="M0 14h54l-3-7H3l-3 7zm8-7h38l-3-7H11L8 7z" fill="rgba(230, 230, 230, 1)" stroke="none"/>
</svg>
</g></svg></g></g>
<!-- /image 31092 -->

<!-- image 50025 -->
<g id="transformed-50025" data-image="50025" transform="translate(92.35703619597483, 164.77587031378417) rotate(358, 14.592963804025173, 13.834129686215856)"><g><svg version="1.1" width="29.185927608050346px" height="27.668259372431713px" viewBox="0 0 29.185927608050346 27.668259372431713"><g id="original-50025"><svg xmlns="http://www.w3.org/2000/svg" viewBox="0 0 78 74" xmlns:xlink="http://www.w3.org/1999/xlink" version="1.1" preserveAspectRatio="xMidYMid meet">
  <g transform="translate(-1 -4)">
    <path d="M28.588 45.077s-8.84-.618-12.512 6.19c-3.67 6.81-1.064 13.048-4.513 17.542C8.115 73.302.97 74.347.97 74.347s16.398 8.342 28.668-1.145 7.996-20.262 6.8-23.491c-1.197-3.23-7.85-4.634-7.85-4.634z" fill="rgba(145, 113, 82, 1)" stroke="none" fill-rule="evenodd"/>
    <path d="M78.808 9.332c.304.304.179.992-.285 1.544L46.875 50.35c-.438.572-1.408.422-2.156-.326L33.752 39.056c-.753-.753-.902-1.717-.328-2.158L72.84 5.192c.548-.462 1.24-.59 1.543-.287l4.426 4.427z" fill="rgba(67, 193, 220, 1)" stroke="none" fill-rule="evenodd"/>
    <path d="M39.157 44.461l5.562 5.562c.748.748 1.718.898 2.156.326l31.648-39.473c.464-.552.59-1.24.285-1.544l-2.26-2.26-37.39 37.39z" fill="rgba(0, 163, 198, 1)" stroke="none" fill-rule="evenodd"/>
    <rect width="25" height="13" x="22.935" y="41.935" transform="rotate(45 35.435 48.435)" rx="2" fill="rgba(216, 216, 216, 1)" stroke="none" fill-rule="evenodd"/>
  </g>
</svg>
</g></svg></g></g>
<!-- /image 50025 -->
</defs><rect x="0" y="0" width="250" height="250" fill="rgba(255, 101, 208, 0)"></rect><use xlink:href="#transformed-45830" transform="translate(-250, -250)"></use><use xlink:href="#transformed-45830" transform="translate(0, -250)"></use><use xlink:href="#transformed-45830" transform="translate(250, -250)"></use><use xlink:href="#transformed-45830" transform="translate(-250, 0)"></use><use xlink:href="#transformed-45830" transform="translate(0, 0)"></use><use xlink:href="#transformed-45830" transform="translate(250, 0)"></use><use xlink:href="#transformed-45830" transform="translate(-250, 250)"></use><use xlink:href="#transformed-45830" transform="translate(0, 250)"></use><use xlink:href="#transformed-45830" transform="translate(250, 250)"></use><use xlink:href="#transformed-21004" transform="translate(-250, -250)"></use><use xlink:href="#transformed-21004" transform="translate(0, -250)"></use><use xlink:href="#transformed-21004" transform="translate(250, -250)"></use><use xlink:href="#transformed-21004" transform="translate(-250, 0)"></use><use xlink:href="#transformed-21004" transform="translate(0, 0)"></use><use xlink:href="#transformed-21004" transform="translate(250, 0)"></use><use xlink:href="#transformed-21004" transform="translate(-250, 250)"></use><use xlink:href="#transformed-21004" transform="translate(0, 250)"></use><use xlink:href="#transformed-21004" transform="translate(250, 250)"></use><use xlink:href="#transformed-56032" transform="translate(-250, -250)"></use><use xlink:href="#transformed-56032" transform="translate(0, -250)"></use><use xlink:href="#transformed-56032" transform="translate(250, -250)"></use><use xlink:href="#transformed-56032" transform="translate(-250, 0)"></use><use xlink:href="#transformed-56032" transform="translate(0, 0)"></use><use xlink:href="#transformed-56032" transform="translate(250, 0)"></use><use xlink:href="#transformed-56032" transform="translate(-250, 250)"></use><use xlink:href="#transformed-56032" transform="translate(0, 250)"></use><use xlink:href="#transformed-56032" transform="translate(250, 250)"></use><use xlink:href="#transformed-59995" transform="translate(-250, -250)"></use><use xlink:href="#transformed-59995" transform="translate(0, -250)"></use><use xlink:href="#transformed-59995" transform="translate(250, -250)"></use><use xlink:href="#transformed-59995" transform="translate(-250, 0)"></use><use xlink:href="#transformed-59995" transform="translate(0, 0)"></use><use xlink:href="#transformed-59995" transform="translate(250, 0)"></use><use xlink:href="#transformed-59995" transform="translate(-250, 250)"></use><use xlink:href="#transformed-59995" transform="translate(0, 250)"></use><use xlink:href="#transformed-59995" transform="translate(250, 250)"></use><use xlink:href="#transformed-31092" transform="translate(-250, -250)"></use><use xlink:href="#transformed-31092" transform="translate(0, -250)"></use><use xlink:href="#transformed-31092" transform="translate(250, -250)"></use><use xlink:href="#transformed-31092" transform="translate(-250, 0)"></use><use xlink:href="#transformed-31092" transform="translate(0, 0)"></use><use xlink:href="#transformed-31092" transform="translate(250, 0)"></use><use xlink:href="#transformed-31092" transform="translate(-250, 250)"></use><use xlink:href="#transformed-31092" transform="translate(0, 250)"></use><use xlink:href="#transformed-31092" transform="translate(250, 250)"></use><use xlink:href="#transformed-50025" transform="translate(-250, -250)"></use><use xlink:href="#transformed-50025" transform="translate(0, -250)"></use><use xlink:href="#transformed-50025" transform="translate(250, -250)"></use><use xlink:href="#transformed-50025" transform="translate(-250, 0)"></use><use xlink:href="#transformed-50025" transform="translate(0, 0)"></use><use xlink:href="#transformed-50025" transform="translate(250, 0)"></use><use xlink:href="#transformed-50025" transform="translate(-250, 250)"></use><use xlink:href="#transformed-50025" transform="translate(0, 250)"></use><use xlink:href="#transformed-50025" transform="translate(250, 250)"></use></svg>